<svg width="81" height="26" viewBox="0 0 81 26" fill="none" xmlns="http://www.w3.org/2000/svg">
<g clip-path="url(#clip0_6_31)">
<path fill-rule="evenodd" clip-rule="evenodd" d="M3.67962 10.6804L6.23255 4.99111L12.1559 3.74382L19.2639 4.62241L20.723 8.69179L18.7402 20.1821L4.86622 20.0194L2.95104 17.1992L3.67962 10.6804Z" fill="white"/>
<path fill-rule="evenodd" clip-rule="evenodd" d="M4.94581e-07 7.47589L7.91003 5.65595C6.66965 6.40039 5.70835 7.54216 5.17737 8.90164L10.3605 9.33702C10.5982 8.28977 11.7133 7.70927 12.7086 7.70927C14.0305 7.70927 14.4325 8.63297 14.1117 9.74298C10.3818 9.74298 5.31265 10.5 3.86902 14.4831C3.37621 15.8559 3.49603 17.5366 4.59759 18.5858C5.34357 19.2957 6.46253 19.6213 7.83079 19.6213C9.6822 19.6213 12.1192 18.9329 13.157 17.2385L12.985 18.8368L13.07 19.3899H18.4812C18.259 18.4897 18.3711 17.3875 18.5102 16.4834C18.7305 15.191 19.0475 13.8261 19.3161 12.4533L21.2487 21.0823L3.92313 25.0674L-0.00386548 7.4857L4.94581e-07 7.47589ZM14.0344 4.24785L17.3197 3.49084L17.6096 4.79304C16.5448 4.36551 15.2345 4.26158 14.0324 4.24785H14.0344Z" fill="#231F20"/>
<path fill-rule="evenodd" clip-rule="evenodd" d="M2.0408 3.987L19.3663 0.00195312L23.2991 17.5836L18.3865 18.7074C18.3468 17.9606 18.3922 17.2117 18.5218 16.4756C18.9779 13.8123 19.8398 10.8392 19.8398 8.13679C19.8398 4.59104 16.4095 4.24195 13.7116 4.24195C10.2562 4.24195 6.58235 5.35 5.1793 8.89183L10.3625 9.3272C10.6002 8.27995 11.7153 7.69945 12.7105 7.69945C14.0324 7.69945 14.4344 8.62315 14.1136 9.73316C10.635 9.73316 5.98518 10.3921 4.21495 13.7202L2.0408 3.987ZM15.4587 19.3859H13.0816L12.9966 18.8329L13.1686 17.2345C12.1308 18.929 9.68993 19.6173 7.84239 19.6173C7.01162 19.6428 6.18571 19.4799 5.42474 19.1408L5.96779 21.5667L15.4567 19.384L15.4587 19.3859ZM13.7193 12.4709C12.4091 12.4709 10.6079 12.9122 9.89671 14.1634C9.7836 14.3412 9.70803 14.5409 9.67476 14.7498C9.6415 14.9588 9.65127 15.1724 9.70346 15.3773C9.73566 15.549 9.80137 15.7123 9.89671 15.8578C10.3412 16.4834 11.7385 16.1677 12.2989 15.8186C13.3406 15.1773 13.5106 13.6084 13.7116 12.469L13.7193 12.4709Z" fill="#043266"/>
<path d="M37.318 17.7562H33.621C33.6068 17.5653 33.601 17.4111 33.6036 17.2934C33.6036 16.962 33.6423 16.5697 33.6944 16.1167C32.9214 17.3588 31.8714 17.9791 30.5443 17.9778C29.6438 17.9778 28.9248 17.7072 28.3799 17.1639C28.113 16.9006 27.9047 16.5824 27.769 16.2306C27.6333 15.8788 27.5734 15.5016 27.5933 15.1244C27.6034 14.5311 27.7731 13.9519 28.0842 13.4495C28.4032 12.9359 28.8524 12.5186 29.3848 12.2415C29.9162 11.9523 30.4907 11.7536 31.0855 11.6531C31.6652 11.559 32.7881 11.4296 34.4636 11.2609C34.5324 11.0785 34.5747 10.8869 34.5892 10.6922C34.6028 10.1489 34.2472 9.87437 33.5244 9.87437C32.8016 9.87437 32.2798 10.247 31.9223 10.9863L28.8591 10.3274C29.6824 8.48914 31.4217 7.57068 34.0771 7.57198C35.4196 7.57198 36.4683 7.81517 37.2233 8.30153C37.5857 8.52255 37.8806 8.84114 38.0754 9.22194C38.2702 9.60274 38.3572 10.0309 38.3268 10.4588C38.3165 10.8837 38.0588 12.3873 37.5538 14.9694C37.4101 15.599 37.3094 16.2379 37.2523 16.8815C37.2495 17.1749 37.2747 17.4678 37.3277 17.7562H37.318ZM34.0964 13.0495C32.3764 13.1867 31.5042 13.7614 31.4797 14.7733C31.4668 15.329 31.738 15.6068 32.2933 15.6068C32.7018 15.5847 33.087 15.4068 33.3717 15.1087C33.7337 14.774 33.9747 14.0876 34.0945 13.0495H34.0964ZM44.0936 4.36551H40.499L38.0466 17.7562H41.6431L44.0956 4.36551H44.0936ZM51.3775 15.2754L50.9349 17.7562H42.4645L42.8722 15.5303L47.7037 10.2529H44.1555L44.5961 7.84851H52.7438L52.3882 9.76062L47.3075 15.2754H51.3794H51.3775ZM61.4501 17.7562C61.3971 17.4678 61.3719 17.1749 61.3747 16.8815C61.4318 16.2379 61.5325 15.599 61.6762 14.9694C62.1851 12.3846 62.4428 10.8811 62.4492 10.4588C62.4794 10.0309 62.3923 9.60285 62.1975 9.22209C62.0028 8.84133 61.7079 8.52272 61.3457 8.30153C60.5907 7.81647 59.542 7.57329 58.1995 7.57198C55.5467 7.57198 53.8074 8.49045 52.9815 10.3274L56.0447 10.9863C56.4015 10.2463 56.9356 9.87567 57.6468 9.87437C58.3696 9.87437 58.7232 10.1489 58.7116 10.6922C58.6971 10.8869 58.6548 11.0785 58.586 11.2609C56.9105 11.4217 55.7818 11.5531 55.2079 11.6531C54.6131 11.7536 54.0386 11.9523 53.5072 12.2415C52.9748 12.5186 52.5256 12.9359 52.2066 13.4495C51.8955 13.9519 51.7258 14.5311 51.7157 15.1244C51.6958 15.5016 51.7557 15.8788 51.8914 16.2306C52.0271 16.5824 52.2353 16.9006 52.5023 17.1639C53.0453 17.7072 53.7642 17.9778 54.6667 17.9778C55.9963 17.9778 57.0464 17.3574 57.8168 16.1167C57.7647 16.5697 57.7337 16.96 57.726 17.2934C57.726 17.4111 57.7318 17.5653 57.7434 17.7562H61.4404H61.4501ZM58.2285 13.0495C58.1087 14.0876 57.8677 14.774 57.5057 15.1087C57.221 15.4068 56.8358 15.5847 56.4273 15.6068C55.8707 15.6068 55.5995 15.329 55.6137 14.7733C55.6369 13.7614 56.5091 13.1861 58.2304 13.0475L58.2285 13.0495Z" fill="#093266"/>
<path d="M65.495 15.0263L65.0427 17.7542H62.2579L62.7043 15.0263H65.495Z" fill="#231F20"/>
<path d="M70.8636 14.7968L73.1286 15.3597C72.7228 16.3442 72.1907 17.026 71.5323 17.4052C70.9124 17.7733 70.2079 17.9695 69.4896 17.9739C69.0227 17.9953 68.5565 17.9178 68.1206 17.7464C67.6848 17.575 67.289 17.3133 66.9583 16.9781C66.6276 16.6429 66.3693 16.2415 66.1999 15.7994C66.0305 15.3574 65.9536 14.8843 65.9742 14.4105C65.9627 13.2499 66.3758 12.1262 67.1338 11.257C67.9068 10.3418 68.9317 9.88417 70.2085 9.88417C71.0699 9.86057 71.909 10.1633 72.5624 10.7333C72.8751 10.9994 73.1244 11.3337 73.2917 11.7114C73.4591 12.089 73.5401 12.5002 73.5287 12.9141L70.9815 13.2162C70.9815 12.3938 70.7071 11.9826 70.1583 11.9826C69.6867 11.9826 69.3543 12.3199 69.1553 12.9906C68.9745 13.5617 68.8749 14.156 68.8596 14.7557C68.8596 15.4989 69.1379 15.8715 69.6906 15.8715C70.2433 15.8715 70.624 15.5087 70.8636 14.7968Z" fill="#231F20"/>
<path d="M80.0569 15.85L79.7458 17.7543H73.0378L73.318 16.0441L77.044 11.9944H74.2379L74.5413 10.147H81L80.7545 11.6159L76.8295 15.85H80.0569Z" fill="#231F20"/>
</g>
<defs>
<clipPath id="clip0_6_31">
<rect width="81" height="25.0576" fill="white"/>
</clipPath>
</defs>
</svg>
