<svg width="75" height="74" viewBox="0 0 75 74" fill="none" xmlns="http://www.w3.org/2000/svg">
<g clip-path="url(#clip0_128_108)">
<mask id="mask0_128_108" style="mask-type:luminance" maskUnits="userSpaceOnUse" x="0" y="0" width="74" height="74">
<path d="M73.9913 0.00115967H0.534668V73.4578H73.9913V0.00115967Z" fill="white"/>
</mask>
<g mask="url(#mask0_128_108)">
<path d="M62.7188 12.7202C58.0369 10.5719 53.0163 8.98919 47.767 8.08269C47.6714 8.0652 47.5759 8.10892 47.5266 8.19636C46.881 9.34478 46.1657 10.843 45.6649 12.0206C40.0189 11.1753 34.4018 11.1753 28.8716 12.0206C28.3706 10.8168 27.6294 9.34478 26.9808 8.19636C26.9316 8.11183 26.8361 8.06811 26.7405 8.08269C21.494 8.98629 16.4734 10.569 11.7886 12.7202C11.7481 12.7376 11.7133 12.7668 11.6903 12.8047C2.16722 27.0319 -0.441541 40.9094 0.838228 54.6149C0.844019 54.6819 0.881658 54.7461 0.933776 54.7868C7.2168 59.4009 13.303 62.2021 19.2761 64.0588C19.3717 64.088 19.473 64.053 19.5339 63.9743C20.9468 62.0448 22.2063 60.0102 23.2863 57.8707C23.35 57.7454 23.2892 57.5967 23.1589 57.5471C21.1611 56.7893 19.2588 55.8653 17.4289 54.816C17.2841 54.7315 17.2725 54.5244 17.4057 54.4253C17.7908 54.1368 18.176 53.8365 18.5437 53.5334C18.6102 53.4781 18.7029 53.4664 18.7811 53.5013C30.8027 58.99 43.8176 58.99 55.6974 53.5013C55.7756 53.4635 55.8683 53.4752 55.9377 53.5305C56.3055 53.8336 56.6906 54.1368 57.0786 54.4253C57.2118 54.5244 57.2031 54.7315 57.0583 54.816C55.2284 55.8857 53.3261 56.7893 51.3254 57.5442C51.1951 57.5938 51.1372 57.7454 51.2009 57.8707C52.304 60.0072 53.5635 62.0418 54.9504 63.9714C55.0084 64.053 55.1125 64.088 55.2081 64.0588C61.2103 62.2021 67.2964 59.4009 73.5794 54.7868C73.6345 54.7461 73.6692 54.6848 73.675 54.6178C75.2067 38.7728 71.1096 25.009 62.8143 12.8076C62.794 12.7668 62.7594 12.7376 62.7188 12.7202ZM25.0815 46.2697C21.4622 46.2697 18.4799 42.9469 18.4799 38.8661C18.4799 34.7853 21.4043 31.4625 25.0815 31.4625C28.7875 31.4625 31.7409 34.8145 31.683 38.8661C31.683 42.9469 28.7586 46.2697 25.0815 46.2697ZM49.4897 46.2697C45.8705 46.2697 42.8882 42.9469 42.8882 38.8661C42.8882 34.7853 45.8125 31.4625 49.4897 31.4625C53.1958 31.4625 56.1491 34.8145 56.0913 38.8661C56.0913 42.9469 53.1958 46.2697 49.4897 46.2697Z" fill="#636363"/>
</g>
</g>
<defs>
<clipPath id="clip0_128_108">
<rect width="74" height="74" fill="white" transform="translate(0.5)"/>
</clipPath>
</defs>
</svg>
