<svg width="74" height="74" viewBox="0 0 74 74" fill="none" xmlns="http://www.w3.org/2000/svg">
<g clip-path="url(#clip0_29_280)">
<path d="M62.2188 12.7202C57.5369 10.5719 52.5163 8.98919 47.267 8.08269C47.1714 8.0652 47.0759 8.10892 47.0266 8.19636C46.381 9.34478 45.6657 10.843 45.1649 12.0206C39.5189 11.1753 33.9018 11.1753 28.3716 12.0206C27.8706 10.8168 27.1294 9.34478 26.4808 8.19636C26.4316 8.11183 26.3361 8.06811 26.2405 8.08269C20.994 8.98629 15.9734 10.569 11.2886 12.7202C11.2481 12.7376 11.2133 12.7668 11.1903 12.8047C1.66722 27.0319 -0.941541 40.9094 0.338228 54.6149C0.344019 54.6819 0.381658 54.7461 0.433776 54.7868C6.7168 59.4009 12.803 62.2021 18.7761 64.0588C18.8717 64.088 18.973 64.053 19.0339 63.9743C20.4468 62.0448 21.7063 60.0102 22.7863 57.8707C22.85 57.7454 22.7892 57.5967 22.6589 57.5471C20.6611 56.7893 18.7588 55.8653 16.9289 54.816C16.7841 54.7315 16.7725 54.5244 16.9057 54.4253C17.2908 54.1368 17.676 53.8365 18.0437 53.5334C18.1102 53.4781 18.2029 53.4664 18.2811 53.5013C30.3027 58.99 43.3176 58.99 55.1974 53.5013C55.2756 53.4635 55.3683 53.4752 55.4377 53.5305C55.8055 53.8336 56.1906 54.1368 56.5786 54.4253C56.7118 54.5244 56.7031 54.7315 56.5583 54.816C54.7284 55.8857 52.8261 56.7893 50.8254 57.5442C50.6951 57.5938 50.6372 57.7454 50.7009 57.8707C51.804 60.0072 53.0635 62.0418 54.4504 63.9714C54.5084 64.053 54.6125 64.088 54.7081 64.0588C60.7103 62.2021 66.7964 59.4009 73.0794 54.7868C73.1345 54.7461 73.1692 54.6848 73.175 54.6178C74.7067 38.7728 70.6096 25.009 62.3143 12.8076C62.294 12.7668 62.2594 12.7376 62.2188 12.7202ZM24.5815 46.2697C20.9622 46.2697 17.9799 42.9469 17.9799 38.8661C17.9799 34.7853 20.9043 31.4625 24.5815 31.4625C28.2875 31.4625 31.2409 34.8145 31.183 38.8661C31.183 42.9469 28.2586 46.2697 24.5815 46.2697ZM48.9897 46.2697C45.3705 46.2697 42.3882 42.9469 42.3882 38.8661C42.3882 34.7853 45.3125 31.4625 48.9897 31.4625C52.6958 31.4625 55.6491 34.8145 55.5913 38.8661C55.5913 42.9469 52.6958 46.2697 48.9897 46.2697Z" fill="white"/>
</g>
<defs>
<clipPath id="clip0_29_280">
<rect width="73.4566" height="73.4566" fill="white" transform="translate(0.034668 0.00115967)"/>
</clipPath>
</defs>
</svg>
