<svg width="74" height="74" viewBox="0 0 74 74" fill="none" xmlns="http://www.w3.org/2000/svg">
<path d="M37.237 0C16.9527 0 0.508667 16.444 0.508667 36.7283C0.508667 53.9524 12.3675 68.4058 28.3649 72.3754V47.9525H20.7915V36.7283H28.3649V31.8919C28.3649 19.3911 34.0225 13.5968 46.2957 13.5968C48.6228 13.5968 52.6379 14.0537 54.2804 14.5092V24.6829C53.4136 24.5918 51.9078 24.5463 50.0376 24.5463C44.0156 24.5463 41.6885 26.8278 41.6885 32.7587V36.7283H53.6854L51.6242 47.9525H41.6885V73.1878C59.8749 70.9914 73.9668 55.5068 73.9668 36.7283C73.9653 16.444 57.5213 0 37.237 0Z" fill="white"/>
</svg>
