<svg width="75" height="74" viewBox="0 0 75 74" fill="none" xmlns="http://www.w3.org/2000/svg">
<g clip-path="url(#clip0_128_114)">
<path d="M37.737 0C17.4527 0 1.00867 16.444 1.00867 36.7283C1.00867 53.9524 12.8675 68.4058 28.8649 72.3754V47.9525H21.2915V36.7283H28.8649V31.8919C28.8649 19.3911 34.5225 13.5968 46.7957 13.5968C49.1228 13.5968 53.1379 14.0537 54.7804 14.5092V24.6829C53.9136 24.5918 52.4078 24.5463 50.5376 24.5463C44.5156 24.5463 42.1885 26.8278 42.1885 32.7587V36.7283H54.1854L52.1242 47.9525H42.1885V73.1878C60.3749 70.9914 74.4668 55.5068 74.4668 36.7283C74.4653 16.444 58.0213 0 37.737 0Z" fill="#636363"/>
</g>
<defs>
<clipPath id="clip0_128_114">
<rect width="74" height="74" fill="white" transform="translate(0.5)"/>
</clipPath>
</defs>
</svg>
