<svg width="40" height="40" viewBox="0 0 40 40" fill="none" xmlns="http://www.w3.org/2000/svg">
<mask id="mask0_36_3" style="mask-type:luminance" maskUnits="userSpaceOnUse" x="0" y="0" width="40" height="40">
<path d="M40 0H0V39.0927H40V0Z" fill="white"/>
</mask>
<g mask="url(#mask0_36_3)">
<path d="M20.1281 0C9.16362 0 0.274956 8.68702 0.274956 19.4028C0.274956 28.5019 6.68513 36.1374 15.3324 38.2344V25.3323H11.2386V19.4028H15.3324V16.8478C15.3324 10.2439 18.3905 7.18291 25.0247 7.18291C26.2826 7.18291 28.4529 7.42428 29.3408 7.66491V13.0395C28.8722 12.9913 28.0583 12.9673 27.0474 12.9673C23.7922 12.9673 22.5343 14.1726 22.5343 17.3057V19.4028H29.0191L27.905 25.3323H22.5343V38.6636C32.3648 37.5033 39.9821 29.3231 39.9821 19.4028C39.9812 8.68702 31.0926 0 20.1281 0Z" fill="#1265F8"/>
</g>
</svg>
