<svg width="60" height="60" viewBox="0 0 60 60" fill="none" xmlns="http://www.w3.org/2000/svg">
<path d="M19.2333 12.2233C18.035 12.2233 15.4083 15.9617 13.2883 13.9383C12.555 13.24 16.3183 11.8083 16.1667 10.5767C16.0417 9.565 11.43 8.04333 13.0417 7.07833C14.6533 6.115 17.0717 8.48 18.8967 8.52167C22.8667 8.61333 25.9167 7.1 25.96 7.07833C26.174 6.9699 26.4075 6.90526 26.6468 6.88821C26.8861 6.87115 27.1265 6.90202 27.3537 6.979C27.5809 7.05599 27.7905 7.17754 27.9702 7.33655C28.1498 7.49555 28.296 7.68881 28.4 7.905C28.85 8.81667 28.485 9.92667 27.5867 10.3817C27.3683 10.4917 23.8783 12.2233 19.2333 12.2233Z" fill="#DD2E44"/>
<path d="M46.3633 60C39.7517 60 32.7267 55.1467 32.7267 46.1533C32.7267 43.8633 31.2433 43.385 29.9983 43.385C28.755 43.385 27.2717 43.8633 27.2717 46.1533C27.2717 55.1467 20.245 60 13.635 60C7.025 60 0 55.3833 0 46.1533C1 36 10 38.5 10.5 42C11 45.5 12.3933 48.9233 13.6367 48.9233C14.8817 48.9233 16.365 48.445 16.365 46.155C16.365 37.1633 23.39 32.3083 30.0017 32.3083C36.6117 32.3083 43.6383 37.1617 43.6383 46.155C43.6383 48.445 45.1217 48.9233 46.3667 48.9233C47.6117 48.9233 49.0933 48.445 49.0933 46.155V18.4617C49.0933 12.0367 43.3983 11.0767 40.0033 11.0767C40.0033 11.0767 34.55 12.9233 29.095 12.9233C23.64 12.9233 21.8217 8.59667 21.8217 5.53833C21.8183 2.48 29.0917 0 40 0C50.91 0 60 7.41833 60 18.4617V46.1533C60 55.1467 52.9733 60 46.3633 60Z" fill="#5CB728"/>
<path d="M31.1667 6.16667C32.0871 6.16667 32.8333 5.42048 32.8333 4.5C32.8333 3.57953 32.0871 2.83334 31.1667 2.83334C30.2462 2.83334 29.5 3.57953 29.5 4.5C29.5 5.42048 30.2462 6.16667 31.1667 6.16667Z" fill="#292F33"/>
</svg>
