<svg width="74" height="74" viewBox="0 0 74 74" fill="none" xmlns="http://www.w3.org/2000/svg">
<g clip-path="url(#clip0_29_275)">
<path d="M36.7457 6.61397C46.559 6.61397 47.7211 6.65701 51.5805 6.82917C55.1672 6.98699 57.1041 7.58956 58.3953 8.09171C60.1026 8.75167 61.3364 9.5551 62.6133 10.832C63.9045 12.1232 64.6936 13.3427 65.3536 15.05C65.8557 16.3412 66.4583 18.2924 66.6161 21.8648C66.7883 25.7385 66.8313 26.9006 66.8313 36.6996C66.8313 46.513 66.7883 47.6751 66.6161 51.5344C66.4583 55.1212 65.8557 57.058 65.3536 58.3493C64.6936 60.0566 63.8902 61.2904 62.6133 62.5673C61.3221 63.8585 60.1026 64.6476 58.3953 65.3076C57.1041 65.8097 55.1529 66.4123 51.5805 66.5701C47.7068 66.7423 46.5447 66.7853 36.7457 66.7853C26.9323 66.7853 25.7702 66.7423 21.9109 66.5701C18.3241 66.4123 16.3873 65.8097 15.096 65.3076C13.3887 64.6476 12.1549 63.8442 10.878 62.5673C9.58678 61.276 8.7977 60.0566 8.13774 58.3493C7.63559 57.058 7.03302 55.1068 6.8752 51.5344C6.70304 47.6607 6.66 46.4986 6.66 36.6996C6.66 26.8863 6.70304 25.7242 6.8752 21.8648C7.03302 18.2781 7.63559 16.3412 8.13774 15.05C8.7977 13.3427 9.60113 12.1089 10.878 10.832C12.1692 9.54076 13.3887 8.75167 15.096 8.09171C16.3873 7.58956 18.3385 6.98699 21.9109 6.82917C25.7702 6.65701 26.9323 6.61397 36.7457 6.61397ZM36.7457 0C26.7745 0 25.5263 0.043041 21.6096 0.215205C17.7072 0.387369 15.0243 1.01864 12.7001 1.9225C10.2754 2.8694 8.22382 4.11759 6.18655 6.16921C4.13492 8.20649 2.88673 10.2581 1.93983 12.6684C1.03597 15.007 0.404703 17.6755 0.232539 21.5779C0.060375 25.509 0.017334 26.7572 0.017334 36.7283C0.017334 46.6995 0.060375 47.9477 0.232539 51.8644C0.404703 55.7668 1.03597 58.4497 1.93983 60.7739C2.88673 63.1985 4.13492 65.2502 6.18655 67.2874C8.22382 69.3247 10.2754 70.5872 12.6857 71.5198C15.0243 72.4237 17.6928 73.0549 21.5952 73.2271C25.512 73.3993 26.7601 73.4423 36.7313 73.4423C46.7025 73.4423 47.9507 73.3993 51.8674 73.2271C55.7698 73.0549 58.4527 72.4237 60.7769 71.5198C63.1872 70.5872 65.2388 69.3247 67.2761 67.2874C69.3134 65.2502 70.5759 63.1985 71.5084 60.7883C72.4123 58.4497 73.0436 55.7811 73.2157 51.8788C73.3879 47.962 73.4309 46.7138 73.4309 36.7427C73.4309 26.7715 73.3879 25.5233 73.2157 21.6066C73.0436 17.7042 72.4123 15.0213 71.5084 12.6971C70.6046 10.2581 69.3564 8.20649 67.3048 6.16921C65.2675 4.13194 63.2159 2.8694 60.8056 1.93685C58.467 1.03298 55.7985 0.401716 51.8961 0.229552C47.965 0.043041 46.7168 0 36.7457 0Z" fill="white"/>
<path d="M36.7456 17.862C26.3297 17.862 17.8793 26.3124 17.8793 36.7283C17.8793 47.1442 26.3297 55.5946 36.7456 55.5946C47.1616 55.5946 55.6119 47.1442 55.6119 36.7283C55.6119 26.3124 47.1616 17.862 36.7456 17.862ZM36.7456 48.9663C29.9882 48.9663 24.5076 43.4858 24.5076 36.7283C24.5076 29.9709 29.9882 24.4903 36.7456 24.4903C43.5031 24.4903 48.9836 29.9709 48.9836 36.7283C48.9836 43.4858 43.5031 48.9663 36.7456 48.9663Z" fill="white"/>
<path d="M60.7626 17.1158C60.7626 19.5548 58.7827 21.5204 56.358 21.5204C53.919 21.5204 51.9535 19.5405 51.9535 17.1158C51.9535 14.6768 53.9334 12.7113 56.358 12.7113C58.7827 12.7113 60.7626 14.6912 60.7626 17.1158Z" fill="white"/>
</g>
<defs>
<clipPath id="clip0_29_275">
<rect width="73.4566" height="73.4566" fill="white" transform="translate(0.017334)"/>
</clipPath>
</defs>
</svg>
