<svg width="75" height="74" viewBox="0 0 75 74" fill="none" xmlns="http://www.w3.org/2000/svg">
<g clip-path="url(#clip0_128_116)">
<mask id="mask0_128_116" style="mask-type:luminance" maskUnits="userSpaceOnUse" x="0" y="0" width="74" height="74">
<path d="M73.9739 0H0.517334V73.4566H73.9739V0Z" fill="white"/>
</mask>
<g mask="url(#mask0_128_116)">
<path d="M37.2457 6.61397C47.059 6.61397 48.2211 6.65701 52.0805 6.82917C55.6672 6.98699 57.6041 7.58956 58.8953 8.09171C60.6026 8.75167 61.8364 9.5551 63.1133 10.832C64.4045 12.1232 65.1936 13.3427 65.8536 15.05C66.3557 16.3412 66.9583 18.2924 67.1161 21.8648C67.2883 25.7385 67.3313 26.9006 67.3313 36.6996C67.3313 46.513 67.2883 47.6751 67.1161 51.5344C66.9583 55.1212 66.3557 57.058 65.8536 58.3493C65.1936 60.0566 64.3902 61.2904 63.1133 62.5673C61.8221 63.8585 60.6026 64.6476 58.8953 65.3076C57.6041 65.8097 55.6529 66.4123 52.0805 66.5701C48.2068 66.7423 47.0447 66.7853 37.2457 66.7853C27.4323 66.7853 26.2702 66.7423 22.4109 66.5701C18.8241 66.4123 16.8873 65.8097 15.596 65.3076C13.8887 64.6476 12.6549 63.8442 11.378 62.5673C10.0868 61.276 9.2977 60.0566 8.63774 58.3493C8.13559 57.058 7.53302 55.1068 7.3752 51.5344C7.20304 47.6607 7.16 46.4986 7.16 36.6996C7.16 26.8863 7.20304 25.7242 7.3752 21.8648C7.53302 18.2781 8.13559 16.3412 8.63774 15.05C9.2977 13.3427 10.1011 12.1089 11.378 10.832C12.6692 9.54076 13.8887 8.75167 15.596 8.09171C16.8873 7.58956 18.8385 6.98699 22.4109 6.82917C26.2702 6.65701 27.4323 6.61397 37.2457 6.61397ZM37.2457 0C27.2745 0 26.0263 0.043041 22.1096 0.215205C18.2072 0.387369 15.5243 1.01864 13.2001 1.9225C10.7754 2.8694 8.72382 4.11759 6.68655 6.16921C4.63492 8.20649 3.38673 10.2581 2.43983 12.6684C1.53597 15.007 0.904703 17.6755 0.732539 21.5779C0.560375 25.509 0.517334 26.7572 0.517334 36.7283C0.517334 46.6995 0.560375 47.9477 0.732539 51.8644C0.904703 55.7668 1.53597 58.4497 2.43983 60.7739C3.38673 63.1985 4.63492 65.2502 6.68655 67.2874C8.72382 69.3247 10.7754 70.5872 13.1857 71.5198C15.5243 72.4237 18.1928 73.0549 22.0952 73.2271C26.012 73.3993 27.2601 73.4423 37.2313 73.4423C47.2025 73.4423 48.4507 73.3993 52.3674 73.2271C56.2698 73.0549 58.9527 72.4237 61.2769 71.5198C63.6872 70.5872 65.7388 69.3247 67.7761 67.2874C69.8134 65.2502 71.0759 63.1985 72.0084 60.7883C72.9123 58.4497 73.5436 55.7811 73.7157 51.8788C73.8879 47.962 73.9309 46.7138 73.9309 36.7427C73.9309 26.7715 73.8879 25.5233 73.7157 21.6066C73.5436 17.7042 72.9123 15.0213 72.0084 12.6971C71.1046 10.2581 69.8564 8.20649 67.8048 6.16921C65.7675 4.13194 63.7159 2.8694 61.3056 1.93685C58.967 1.03298 56.2985 0.401716 52.3961 0.229552C48.465 0.043041 47.2168 0 37.2457 0Z" fill="#636363"/>
<path d="M37.2456 17.862C26.8297 17.862 18.3793 26.3124 18.3793 36.7283C18.3793 47.1442 26.8297 55.5946 37.2456 55.5946C47.6616 55.5946 56.1119 47.1442 56.1119 36.7283C56.1119 26.3124 47.6616 17.862 37.2456 17.862ZM37.2456 48.9663C30.4882 48.9663 25.0076 43.4858 25.0076 36.7283C25.0076 29.9709 30.4882 24.4903 37.2456 24.4903C44.0031 24.4903 49.4836 29.9709 49.4836 36.7283C49.4836 43.4858 44.0031 48.9663 37.2456 48.9663Z" fill="#636363"/>
<path d="M61.2626 17.1158C61.2626 19.5548 59.2827 21.5204 56.858 21.5204C54.419 21.5204 52.4535 19.5405 52.4535 17.1158C52.4535 14.6768 54.4334 12.7113 56.858 12.7113C59.2827 12.7113 61.2626 14.6912 61.2626 17.1158Z" fill="#636363"/>
</g>
</g>
<defs>
<clipPath id="clip0_128_116">
<rect width="74" height="74" fill="white" transform="translate(0.5)"/>
</clipPath>
</defs>
</svg>
