<svg width="33" height="32" viewBox="0 0 33 32" fill="none" xmlns="http://www.w3.org/2000/svg">
<path d="M32.1219 1.14679C32.1219 0.513134 31.6077 0 30.9746 0H19.3776V4.62078C19.6654 4.46029 19.9965 4.36932 20.3489 4.36932C21.4545 4.36932 22.3514 5.26566 22.3514 6.37211C22.3514 7.47749 21.455 8.37433 20.3489 8.37433C19.9965 8.37433 19.6654 8.28286 19.3776 8.12344V12.7437H23.9984C23.8385 13.0314 23.747 13.3626 23.747 13.7146C23.747 14.821 24.6434 15.7174 25.7497 15.7174C26.8556 15.7174 27.752 14.821 27.752 13.7146C27.752 13.3626 27.6605 13.0314 27.5011 12.7437H32.1219V1.14679Z" fill="#00A2FF"/>
<path d="M26.9532 17.2152H21.1315C20.9276 17.2152 20.739 17.323 20.6358 17.4978L20.6415 17.4882L20.6348 17.4989C20.5822 17.5883 20.5556 17.6895 20.5556 17.7902C20.5556 17.8862 20.5801 17.9833 20.6282 18.0702L20.9951 18.731C21.0774 18.8797 21.1177 19.0361 21.1183 19.2067C21.1178 19.4704 21.0166 19.7137 20.8306 19.9007C20.6436 20.0868 20.3998 20.188 20.1366 20.189C19.8729 20.1879 19.6291 20.0868 19.4416 19.9007L19.4423 19.9018C19.2557 19.7137 19.1548 19.47 19.1543 19.2068C19.1548 19.0366 19.1952 18.8797 19.2772 18.7306L19.6444 18.0703C19.6927 17.9833 19.717 17.8869 19.717 17.7902C19.717 17.6895 19.6904 17.5884 19.6369 17.4979C19.5335 17.3227 19.3449 17.2153 19.1413 17.2153H14.7853V14.8825C15.5725 14.8702 16.3161 14.56 16.8731 14.0019C17.4434 13.4331 17.7592 12.6702 17.7587 11.8643C17.7592 11.0574 17.4431 10.2944 16.8731 9.72615C16.3165 9.16803 15.5728 8.85836 14.7853 8.84612V5.04696C14.785 4.72913 14.5274 4.47153 14.2096 4.47153H2.16747C1.59003 4.47109 1.04195 4.69745 0.634658 5.10575C0.230187 5.51053 0.000502735 6.06601 8.31029e-07 6.63938V29.8327C-0.000501073 30.4097 0.22636 30.9575 0.634658 31.3653C1.03944 31.7695 1.59411 31.9995 2.16747 32H25.3633C25.9352 31.9995 26.4902 31.7695 26.8944 31.3653C27.3028 30.9575 27.5291 30.4102 27.5286 29.8327V17.7907C27.5287 17.4728 27.2711 17.2152 26.9532 17.2152ZM1.77988 6.63938C1.77988 6.5065 1.84174 6.41609 1.8923 6.36546C1.94469 6.31333 2.03484 6.25097 2.16747 6.25097H13.0053V10.8687C13.0053 10.9801 13.0643 11.0828 13.1601 11.1395C13.2092 11.1681 13.2641 11.1825 13.3193 11.1825C13.3719 11.1825 13.4243 11.1697 13.4719 11.1431L14.1324 10.7762C14.3186 10.6729 14.5215 10.6203 14.7351 10.6203C15.067 10.6203 15.3795 10.7496 15.6144 10.9842C15.8494 11.2198 15.9787 11.5325 15.9787 11.8642C15.9787 12.1958 15.8494 12.5081 15.6149 12.7432C15.3795 12.9782 15.067 13.1075 14.7351 13.1075C14.5213 13.1075 14.3186 13.0549 14.1326 12.9516L13.4716 12.5847C13.4244 12.5581 13.3717 12.5453 13.3193 12.5453C13.2641 12.5453 13.2092 12.5596 13.1602 12.5888C13.0644 12.645 13.0053 12.7477 13.0053 12.8592V17.4769H10.1461C10.1517 17.4058 10.1545 17.3348 10.1545 17.2648C10.1545 16.5264 9.86699 15.8329 9.34551 15.3122C8.82454 14.7904 8.13103 14.5032 7.39261 14.5032C6.65443 14.5032 5.96099 14.7904 5.4402 15.3116C4.91822 15.8324 4.63075 16.5264 4.63101 17.2643C4.63101 17.3348 4.63377 17.4054 4.63941 17.4769H1.77988V6.63938ZM13.0053 30.2206H2.16747C2.03484 30.2206 1.94469 30.1582 1.89356 30.1076C1.84174 30.0555 1.77988 29.965 1.77988 29.8327V18.9942H6.39733C6.5085 18.9942 6.61146 18.9354 6.66792 18.8398C6.72438 18.7437 6.72595 18.6252 6.67181 18.5281L6.30517 17.8673C6.20165 17.6808 6.14926 17.4779 6.14901 17.2648C6.14926 16.9331 6.27888 16.6204 6.51289 16.3853C6.74866 16.1508 7.06122 16.0209 7.39261 16.0209C7.72399 16.0209 8.03655 16.1508 8.27157 16.3848C8.50639 16.6204 8.63595 16.9331 8.6362 17.2642C8.63595 17.4784 8.58325 17.6813 8.4808 17.8668L8.11334 18.5275C8.05913 18.6252 8.06077 18.7437 8.11723 18.8393C8.17369 18.9353 8.27671 18.9941 8.38782 18.9941H13.0053V21.8543C12.9342 21.8488 12.8635 21.8462 12.7935 21.8462C12.0548 21.8462 11.3613 22.1334 10.8411 22.6546C10.3188 23.1759 10.0316 23.8694 10.0321 24.6073C10.0316 25.3452 10.3188 26.0392 10.8406 26.5599C11.3613 27.0817 12.0549 27.3689 12.7935 27.3689C12.864 27.3689 12.9348 27.3663 13.0053 27.3607V30.2206ZM25.7492 29.8327C25.7492 29.965 25.6869 30.055 25.6357 30.1066C25.5836 30.1583 25.4936 30.2206 25.3613 30.2206H14.5236V25.6029C14.5236 25.4915 14.4649 25.3888 14.3688 25.3326C14.3197 25.3034 14.2647 25.2892 14.2096 25.2892C14.1572 25.2892 14.1046 25.302 14.0573 25.3285L13.3958 25.6955C13.21 25.7987 13.0073 25.8513 12.7935 25.8513C12.4621 25.8513 12.1495 25.7216 11.9145 25.4874C11.6797 25.2524 11.5501 24.9396 11.5499 24.6079C11.5501 24.2758 11.6797 23.9635 11.9143 23.7285C12.1491 23.4939 12.4616 23.3641 12.7935 23.3636C13.0059 23.3636 13.2087 23.4162 13.3958 23.5194L14.0571 23.8869C14.1046 23.9135 14.157 23.9263 14.2097 23.9263C14.2648 23.9263 14.3198 23.9119 14.3688 23.8834C14.4646 23.8266 14.5237 23.7239 14.5237 23.6124V18.9942H17.3831C17.3775 19.0653 17.3747 19.1363 17.3747 19.2068C17.3745 19.9442 17.6617 20.6377 18.1832 21.159C18.7044 21.6812 19.3981 21.9685 20.1363 21.9685C20.8745 21.9685 21.568 21.6812 22.0893 21.1595C22.611 20.6388 22.8977 19.9453 22.8977 19.2069C22.8977 19.1363 22.8952 19.0658 22.8896 18.9943H25.7493V29.8327H25.7492Z" fill="#00A2FF"/>
</svg>
