<svg width="291" height="56" viewBox="0 0 291 56" fill="none" xmlns="http://www.w3.org/2000/svg">
<path d="M66.644 39.176C67.26 40.2907 67.9493 41.2587 68.712 42.08C69.504 42.9013 70.3547 43.532 71.264 43.972C72.2027 44.412 73.1853 44.632 74.212 44.632C75.2973 44.632 76.192 44.368 76.896 43.84C77.6 43.2827 77.952 42.5347 77.952 41.596C77.952 40.804 77.7467 40.1733 77.336 39.704C76.9253 39.2053 76.2653 38.736 75.356 38.296C74.4467 37.856 73.244 37.3573 71.748 36.8C71.0147 36.536 70.164 36.1693 69.196 35.7C68.2573 35.2307 67.3627 34.6293 66.512 33.896C65.6613 33.1333 64.9573 32.224 64.4 31.168C63.8427 30.0827 63.564 28.7773 63.564 27.252C63.564 25.4333 64.0333 23.864 64.972 22.544C65.94 21.224 67.2307 20.2267 68.844 19.552C70.4867 18.848 72.3053 18.496 74.3 18.496C76.3533 18.496 78.128 18.8333 79.624 19.508C81.1493 20.1827 82.4107 21.0333 83.408 22.06C84.4053 23.0867 85.168 24.128 85.696 25.184L80.02 28.352C79.58 27.6187 79.0667 26.988 78.48 26.46C77.9227 25.9027 77.292 25.4773 76.588 25.184C75.9133 24.8613 75.18 24.7 74.388 24.7C73.332 24.7 72.5253 24.9347 71.968 25.404C71.4107 25.844 71.132 26.4013 71.132 27.076C71.132 27.78 71.396 28.396 71.924 28.924C72.4813 29.452 73.2587 29.936 74.256 30.376C75.2827 30.816 76.5147 31.2853 77.952 31.784C79.0373 32.1947 80.0493 32.6787 80.988 33.236C81.9267 33.764 82.748 34.4093 83.452 35.172C84.1853 35.9347 84.7573 36.8147 85.168 37.812C85.5787 38.8093 85.784 39.9533 85.784 41.244C85.784 42.7987 85.4613 44.192 84.816 45.424C84.2 46.6267 83.3493 47.6387 82.264 48.46C81.208 49.2813 79.9907 49.8973 78.612 50.308C77.2627 50.748 75.8693 50.968 74.432 50.968C72.4373 50.968 70.5747 50.616 68.844 49.912C67.1427 49.1787 65.6613 48.196 64.4 46.964C63.1387 45.732 62.156 44.3827 61.452 42.916L66.644 39.176ZM88.908 39.88C88.908 37.7387 89.4067 35.876 90.404 34.292C91.4013 32.708 92.78 31.476 94.54 30.596C96.3 29.716 98.28 29.276 100.48 29.276C102.68 29.276 104.645 29.716 106.376 30.596C108.136 31.476 109.515 32.708 110.512 34.292C111.539 35.876 112.052 37.7387 112.052 39.88C112.052 41.992 111.539 43.84 110.512 45.424C109.515 47.008 108.136 48.24 106.376 49.12C104.645 50 102.68 50.44 100.48 50.44C98.28 50.44 96.3 50 94.54 49.12C92.78 48.24 91.4013 47.008 90.404 45.424C89.4067 43.84 88.908 41.992 88.908 39.88ZM95.728 39.88C95.728 40.936 95.948 41.8453 96.388 42.608C96.828 43.3413 97.4 43.9133 98.104 44.324C98.808 44.7347 99.6 44.94 100.48 44.94C101.331 44.94 102.108 44.7347 102.812 44.324C103.545 43.9133 104.117 43.3413 104.528 42.608C104.968 41.8453 105.188 40.936 105.188 39.88C105.188 38.824 104.968 37.9147 104.528 37.152C104.117 36.3893 103.545 35.8027 102.812 35.392C102.108 34.9813 101.331 34.776 100.48 34.776C99.6 34.776 98.808 34.9813 98.104 35.392C97.4 35.8027 96.828 36.3893 96.388 37.152C95.948 37.9147 95.728 38.824 95.728 39.88ZM123.001 42.08C123.001 43.2533 123.221 44.1773 123.661 44.852C124.101 45.4973 124.864 45.82 125.949 45.82C126.682 45.82 127.298 45.6733 127.797 45.38C128.325 45.0867 128.736 44.6613 129.029 44.104C129.322 43.5467 129.469 42.872 129.469 42.08V29.76H136.113V50H129.469V46.964C128.853 48.0493 128.046 48.9147 127.049 49.56C126.052 50.176 124.805 50.484 123.309 50.484C120.786 50.484 118.938 49.8093 117.765 48.46C116.621 47.0813 116.049 45.1893 116.049 42.784V29.76H123.001V42.08ZM138.982 29.76H152.534V35.26H138.982V29.76ZM142.546 22.72H148.926V50H142.546V22.72ZM157.918 41.288V37.592H169.358C169.24 36.7707 169.02 36.0813 168.698 35.524C168.404 34.9667 167.979 34.5413 167.422 34.248C166.894 33.9253 166.234 33.764 165.442 33.764C164.532 33.764 163.74 33.9693 163.066 34.38C162.42 34.7613 161.907 35.3333 161.526 36.096C161.144 36.8293 160.954 37.7387 160.954 38.824L160.866 39.88C160.866 41.2587 161.071 42.3733 161.482 43.224C161.922 44.0747 162.494 44.6907 163.198 45.072C163.931 45.4533 164.723 45.644 165.574 45.644C166.395 45.644 167.114 45.5413 167.73 45.336C168.375 45.1307 168.932 44.8373 169.402 44.456C169.871 44.0453 170.267 43.5613 170.59 43.004L176.53 44.456C175.855 45.688 175.048 46.7587 174.11 47.668C173.171 48.548 172.012 49.2373 170.634 49.736C169.284 50.2053 167.627 50.44 165.662 50.44C163.227 50.44 161.144 49.9853 159.414 49.076C157.712 48.1667 156.407 46.92 155.498 45.336C154.618 43.7227 154.178 41.904 154.178 39.88C154.178 39.4987 154.192 39.132 154.222 38.78C154.251 38.428 154.295 38.076 154.354 37.724C154.647 36.052 155.248 34.5853 156.158 33.324C157.096 32.0627 158.343 31.08 159.898 30.376C161.482 29.672 163.374 29.32 165.574 29.32C167.95 29.32 169.944 29.7307 171.558 30.552C173.171 31.3733 174.388 32.5467 175.21 34.072C176.06 35.5973 176.486 37.4307 176.486 39.572C176.486 39.748 176.486 39.9973 176.486 40.32C176.486 40.6133 176.456 40.936 176.398 41.288H157.918ZM165.574 21.136L169.578 17.352L174.242 20.476L165.574 26.636L156.906 20.476L161.57 17.352L165.574 21.136ZM190.4 21.136L194.448 17.396L199.112 20.52L190.4 26.68L181.732 20.52L186.396 17.396L190.4 21.136ZM189.344 35.788H180.5V29.76H200.3L190.136 43.972H198.892V50H178.652L189.344 35.788ZM202.22 39.88C202.22 37.8267 202.674 36.008 203.584 34.424C204.522 32.84 205.784 31.5933 207.368 30.684C208.952 29.7747 210.726 29.32 212.692 29.32C214.686 29.32 216.461 29.7747 218.016 30.684C219.6 31.5933 220.846 32.84 221.756 34.424C222.694 36.008 223.164 37.8267 223.164 39.88C223.164 41.904 222.694 43.7227 221.756 45.336C220.846 46.92 219.6 48.1667 218.016 49.076C216.461 49.9853 214.686 50.44 212.692 50.44C210.726 50.44 208.952 49.9853 207.368 49.076C205.784 48.1667 204.522 46.92 203.584 45.336C202.674 43.7227 202.22 41.904 202.22 39.88ZM205.784 39.88C205.784 41.288 206.077 42.5347 206.664 43.62C207.28 44.7053 208.101 45.5707 209.128 46.216C210.184 46.832 211.372 47.14 212.692 47.14C214.012 47.14 215.185 46.832 216.212 46.216C217.268 45.5707 218.089 44.7053 218.676 43.62C219.292 42.5347 219.6 41.288 219.6 39.88C219.6 38.472 219.292 37.2253 218.676 36.14C218.089 35.0253 217.268 34.16 216.212 33.544C215.185 32.928 214.012 32.62 212.692 32.62C211.372 32.62 210.184 32.928 209.128 33.544C208.101 34.16 207.28 35.0253 206.664 36.14C206.077 37.2253 205.784 38.472 205.784 39.88ZM255.719 37.24V50H252.199V37.68C252.199 35.9493 251.877 34.6733 251.231 33.852C250.615 33.0307 249.647 32.62 248.327 32.62C247.359 32.62 246.523 32.8253 245.819 33.236C245.115 33.6173 244.573 34.1893 244.191 34.952C243.81 35.7147 243.619 36.624 243.619 37.68V50H240.099V37.68C240.099 35.9493 239.777 34.6733 239.131 33.852C238.515 33.0307 237.547 32.62 236.227 32.62C235.259 32.62 234.423 32.8253 233.719 33.236C233.015 33.6173 232.473 34.1893 232.091 34.952C231.71 35.7147 231.519 36.624 231.519 37.68V50H227.999V29.76H231.519V32.708C232.135 31.564 232.898 30.7133 233.807 30.156C234.746 29.5987 235.846 29.32 237.107 29.32C238.515 29.32 239.718 29.6573 240.715 30.332C241.742 30.9773 242.49 31.9013 242.959 33.104C243.663 31.8427 244.543 30.904 245.599 30.288C246.655 29.6427 247.858 29.32 249.207 29.32C250.586 29.32 251.759 29.628 252.727 30.244C253.695 30.86 254.429 31.7693 254.927 32.972C255.455 34.1453 255.719 35.568 255.719 37.24ZM263.915 43.752C263.915 44.5147 264.091 45.1747 264.443 45.732C264.825 46.2893 265.338 46.7147 265.983 47.008C266.658 47.272 267.421 47.404 268.271 47.404C269.357 47.404 270.325 47.184 271.175 46.744C272.055 46.304 272.745 45.688 273.243 44.896C273.771 44.0747 274.035 43.136 274.035 42.08L274.739 44.72C274.739 46.0107 274.343 47.0813 273.551 47.932C272.789 48.7827 271.835 49.4133 270.691 49.824C269.577 50.2347 268.462 50.44 267.347 50.44C266.115 50.44 264.957 50.1907 263.871 49.692C262.815 49.164 261.965 48.416 261.319 47.448C260.674 46.48 260.351 45.3067 260.351 43.928C260.351 41.9627 261.041 40.3933 262.419 39.22C263.827 38.0173 265.778 37.416 268.271 37.416C269.738 37.416 270.955 37.592 271.923 37.944C272.921 38.2667 273.713 38.648 274.299 39.088C274.886 39.4987 275.282 39.836 275.487 40.1V42.168C274.461 41.464 273.405 40.9653 272.319 40.672C271.234 40.3493 270.075 40.188 268.843 40.188C267.699 40.188 266.761 40.3347 266.027 40.628C265.323 40.9213 264.795 41.332 264.443 41.86C264.091 42.388 263.915 43.0187 263.915 43.752ZM263.387 34.424L261.671 31.828C262.434 31.2707 263.475 30.7133 264.795 30.156C266.145 29.5987 267.758 29.32 269.635 29.32C271.219 29.32 272.598 29.5693 273.771 30.068C274.974 30.5373 275.898 31.2267 276.543 32.136C277.218 33.0453 277.555 34.16 277.555 35.48V50H274.035V35.964C274.035 35.26 273.918 34.688 273.683 34.248C273.449 33.7787 273.111 33.412 272.671 33.148C272.261 32.884 271.777 32.6933 271.219 32.576C270.662 32.4587 270.075 32.4 269.459 32.4C268.462 32.4 267.553 32.5173 266.731 32.752C265.939 32.9867 265.265 33.2653 264.707 33.588C264.15 33.9107 263.71 34.1893 263.387 34.424ZM280.435 29.76H290.555V33.06H280.435V29.76ZM283.735 22.72H287.255V50H283.735V22.72Z" fill="#55C01B"/>
<path d="M46.3959 23.5554V54H4.95973V23.5554M46.3959 23.5554H4.95973M46.3959 23.5554H49.3556V14.422H2V23.5554H4.95973M25.6778 14.422C28.1441 8.84051 34.5567 -2.32252 40.4761 3.7664C46.3956 9.85532 33.0771 13.9146 25.6778 14.422ZM25.6778 14.422C23.2115 8.84051 16.7986 -2.32252 10.8791 3.7664C4.9597 9.85532 18.2785 13.9146 25.6778 14.422Z" stroke="#55C01B" stroke-width="4" stroke-linecap="round" stroke-linejoin="round"/>
</svg>
