<svg width="246" height="32" viewBox="0 0 246 32" fill="none" xmlns="http://www.w3.org/2000/svg">
<path d="M49.2139 7.4668C50.9717 7.45703 52.9492 7.84277 55.1465 8.62402L54.2236 12.1396C52.1826 11.417 50.5225 11.0557 49.2432 11.0557C48.208 11.0557 47.3926 11.2607 46.7969 11.6709C46.2012 12.0811 45.9033 12.6377 45.9033 13.3408C45.9033 14.1025 46.1768 14.708 46.7236 15.1572C47.2803 15.6064 48.291 16.0215 49.7559 16.4023C51.9141 16.959 53.4473 17.7305 54.3555 18.7168C55.2637 19.6934 55.7178 21.041 55.7178 22.7598C55.7178 24.8398 55.0146 26.4365 53.6084 27.5498C52.2119 28.6533 50.2148 29.2051 47.6172 29.2051C45.498 29.2051 43.2275 28.7266 40.8057 27.7695L41.8896 24.3564C43.2275 24.835 44.3213 25.1719 45.1709 25.3672C46.0205 25.5527 46.8262 25.6455 47.5879 25.6455C48.6914 25.6455 49.541 25.4111 50.1367 24.9424C50.7422 24.4639 51.0449 23.8047 51.0449 22.9648C51.0449 22.4277 50.918 21.9785 50.6641 21.6172C50.4102 21.2559 49.9805 20.9336 49.375 20.6504C48.7695 20.3574 47.8955 20.0693 46.7529 19.7861C44.8486 19.3271 43.457 18.6143 42.5781 17.6475C41.6992 16.6807 41.2598 15.4062 41.2598 13.8242C41.2598 11.8027 41.9531 10.2402 43.3398 9.13672C44.7363 8.02344 46.6943 7.4668 49.2139 7.4668ZM65.6055 12.916C68.1934 12.916 70.1758 13.624 71.5527 15.04C72.9297 16.4463 73.6182 18.4678 73.6182 21.1045C73.6182 23.7412 72.9297 25.7725 71.5527 27.1982C70.1758 28.624 68.1934 29.3369 65.6055 29.3369C63.0469 29.3369 61.0742 28.6289 59.6875 27.2129C58.3008 25.7871 57.6074 23.751 57.6074 21.1045C57.6074 18.4678 58.2959 16.4463 59.6729 15.04C61.0498 13.624 63.0273 12.916 65.6055 12.916ZM65.6055 16.2852C63.291 16.2754 62.1338 17.8818 62.1338 21.1045C62.1338 24.3271 63.291 25.9385 65.6055 25.9385C67.9297 25.9385 69.0918 24.3271 69.0918 21.1045C69.0918 17.8818 67.9297 16.2754 65.6055 16.2852ZM80.9277 23.4775C80.9277 24.376 81.1084 25.0303 81.4697 25.4404C81.8311 25.8506 82.4121 26.0557 83.2129 26.0557C83.916 26.0557 84.5801 25.8994 85.2051 25.5869C85.8398 25.2646 86.3428 24.8203 86.7139 24.2539V13.2822H91.2256V29H87.5049L86.9922 26.8027C86.3281 27.6035 85.5469 28.209 84.6484 28.6191C83.75 29.0293 82.7588 29.2344 81.6748 29.2344C79.9756 29.2344 78.6768 28.7607 77.7783 27.8135C76.8799 26.8662 76.4307 25.5039 76.4307 23.7266V13.2822H80.9277V23.4775ZM105.347 28.3994C103.989 28.9561 102.69 29.2344 101.45 29.2344C97.9932 29.2344 96.2646 27.584 96.2646 24.2832V16.4316H93.6719V13.2822H96.5576L97.4219 8.78516H100.732V13.2822H105.024V16.4316H100.732V23.6533C100.732 24.4541 100.879 25.0254 101.172 25.3672C101.475 25.709 101.987 25.8799 102.71 25.8799C103.325 25.8799 103.984 25.7578 104.688 25.5137L105.347 28.3994ZM114.736 8.65332L118.662 6.0459L119.893 7.55469L115.22 11.7734H114.282L109.609 7.55469L110.84 6.0459L114.736 8.65332ZM111.265 21.9834C111.499 24.6592 112.876 25.9971 115.396 25.9971C116.177 25.9971 116.963 25.9092 117.754 25.7334C118.545 25.5479 119.419 25.2549 120.376 24.8545L121.46 27.6523C119.077 28.7559 116.875 29.3027 114.854 29.293C112.373 29.293 110.425 28.5703 109.009 27.125C107.593 25.6797 106.885 23.6729 106.885 21.1045C106.885 18.5459 107.578 16.5537 108.965 15.1279C110.352 13.6924 112.295 12.9746 114.795 12.9746C119.492 12.9746 121.841 15.6357 121.841 20.958V21.9834H111.265ZM117.71 19.376C117.583 17.1885 116.621 16.0947 114.824 16.0947C113.828 16.0947 113.042 16.3682 112.466 16.915C111.899 17.4521 111.528 18.2725 111.353 19.376H117.71ZM125.049 7.55469L126.279 6.0459L130.176 8.65332L134.102 6.0459L135.332 7.55469L130.659 11.7734H129.722L125.049 7.55469ZM135.903 13.2822V15.9775L128.608 25.6748H136.167V29H123.599V26.2168L130.894 16.6074H123.936V13.2822H135.903ZM145.557 13.2822C147.871 13.2822 149.668 13.9854 150.947 15.3916C152.227 16.7881 152.866 18.7461 152.866 21.2656C152.866 23.7852 152.227 25.7432 150.947 27.1396C149.668 28.5361 147.871 29.2344 145.557 29.2344C143.232 29.2344 141.431 28.5361 140.151 27.1396C138.872 25.7432 138.232 23.7852 138.232 21.2656C138.232 18.7461 138.872 16.7881 140.151 15.3916C141.431 13.9854 143.232 13.2822 145.557 13.2822ZM145.557 15.7725C144.111 15.7725 143.008 16.2412 142.246 17.1787C141.494 18.1162 141.118 19.4785 141.118 21.2656C141.118 23.043 141.494 24.4004 142.246 25.3379C143.008 26.2754 144.111 26.7441 145.557 26.7441C146.992 26.7441 148.091 26.2754 148.853 25.3379C149.614 24.4004 149.995 23.043 149.995 21.2656C149.995 19.4883 149.614 18.1309 148.853 17.1934C148.091 16.2461 146.992 15.7725 145.557 15.7725ZM159.238 15.7139C160.596 14.1123 162.295 13.3115 164.336 13.3115C166.68 13.3115 168.262 14.2197 169.082 16.0361C170.479 14.2197 172.266 13.3115 174.443 13.3115C176.162 13.3115 177.466 13.7803 178.354 14.7178C179.253 15.6553 179.702 17.0371 179.702 18.8633V29H176.875V19.0684C176.875 17.9258 176.641 17.0957 176.172 16.5781C175.703 16.0605 174.951 15.8018 173.916 15.8018C172.998 15.8018 172.158 16.002 171.396 16.4023C170.635 16.8027 170.015 17.374 169.536 18.1162C169.536 18.1553 169.546 18.248 169.565 18.3945C169.585 18.541 169.595 18.7363 169.595 18.9805V29H166.768V19.0684C166.768 17.9258 166.533 17.0957 166.064 16.5781C165.596 16.0605 164.839 15.8018 163.794 15.8018C162.915 15.8018 162.085 16.0068 161.304 16.417C160.532 16.8271 159.912 17.3838 159.443 18.0869V29H156.631V13.5752H158.916L159.238 15.7139ZM189.473 13.3408C191.396 13.3408 192.876 13.8486 193.911 14.8643C194.956 15.8701 195.479 17.3105 195.479 19.1855V29H193.311L192.9 27.1982C191.396 28.5947 189.707 29.293 187.832 29.293C186.289 29.293 185.063 28.8779 184.155 28.0479C183.247 27.2178 182.793 26.1045 182.793 24.708C182.793 23.0869 183.457 21.8223 184.785 20.9141C186.113 20.0059 187.979 19.5518 190.381 19.5518H192.651V19.127C192.573 16.9297 191.445 15.8311 189.268 15.8311C188.604 15.8311 187.856 15.9336 187.026 16.1387C186.196 16.334 185.361 16.6025 184.521 16.9443L183.745 14.6592C184.644 14.2393 185.591 13.917 186.587 13.6924C187.593 13.458 188.555 13.3408 189.473 13.3408ZM190.557 21.7051C188.994 21.7051 187.778 21.9639 186.909 22.4814C186.04 22.9893 185.605 23.7021 185.605 24.6201C185.605 25.3232 185.845 25.8652 186.323 26.2461C186.802 26.6172 187.471 26.8027 188.33 26.8027C189.15 26.8027 189.951 26.6318 190.732 26.29C191.514 25.9385 192.153 25.4697 192.651 24.8838V21.7051H190.557ZM208.472 28.4873C207.31 28.9463 206.23 29.1758 205.234 29.1758C203.75 29.1758 202.617 28.7949 201.836 28.0332C201.064 27.2617 200.679 26.1338 200.679 24.6494V16.0068H197.983V13.5752H200.825L201.426 9.16602H203.506V13.5752H208.208V16.0068H203.506V24.1953C203.506 25.0742 203.677 25.7041 204.019 26.085C204.37 26.4658 204.946 26.6562 205.747 26.6562C206.45 26.6562 207.183 26.5293 207.944 26.2754L208.472 28.4873ZM214.434 25.9971V29H211.445V25.9971H214.434ZM225.391 13.3115C227.002 13.3115 228.55 13.7412 230.034 14.6006L229.053 16.8564C227.793 16.1533 226.572 15.8018 225.391 15.8018C223.955 15.8018 222.847 16.2754 222.065 17.2227C221.284 18.1699 220.894 19.5176 220.894 21.2656C220.894 23.0234 221.294 24.3662 222.095 25.2939C222.896 26.2217 224.053 26.6855 225.566 26.6855C226.123 26.6855 226.748 26.6025 227.441 26.4365C228.135 26.2607 228.799 26.0361 229.434 25.7627L230.195 28.0039C229.434 28.3652 228.613 28.6533 227.734 28.8682C226.855 29.0732 226.025 29.1758 225.244 29.1758C222.939 29.1758 221.157 28.4873 219.897 27.1104C218.638 25.7334 218.008 23.7852 218.008 21.2656C218.008 18.7656 218.657 16.8174 219.956 15.4209C221.255 14.0146 223.066 13.3115 225.391 13.3115ZM243.232 13.5752V15.4941L235.249 26.5098H243.555V29H231.704V26.9932L239.629 16.0654H232.129V13.5752H243.232Z" fill="#00A2FF"/>
<path d="M32.1219 1.14679C32.1219 0.513134 31.6077 0 30.9746 0H19.3776V4.62078C19.6654 4.46029 19.9965 4.36932 20.3489 4.36932C21.4545 4.36932 22.3514 5.26566 22.3514 6.37211C22.3514 7.47749 21.455 8.37433 20.3489 8.37433C19.9965 8.37433 19.6654 8.28286 19.3776 8.12344V12.7437H23.9984C23.8385 13.0314 23.747 13.3626 23.747 13.7146C23.747 14.821 24.6434 15.7174 25.7497 15.7174C26.8556 15.7174 27.752 14.821 27.752 13.7146C27.752 13.3626 27.6605 13.0314 27.5011 12.7437H32.1219V1.14679Z" fill="#00A2FF"/>
<path d="M26.9532 17.2152H21.1315C20.9276 17.2152 20.739 17.323 20.6358 17.4978L20.6415 17.4882L20.6348 17.4989C20.5822 17.5883 20.5556 17.6895 20.5556 17.7902C20.5556 17.8862 20.5801 17.9833 20.6282 18.0702L20.9951 18.731C21.0774 18.8797 21.1177 19.0361 21.1183 19.2067C21.1178 19.4704 21.0166 19.7137 20.8306 19.9007C20.6436 20.0868 20.3998 20.188 20.1366 20.189C19.8729 20.1879 19.6291 20.0868 19.4416 19.9007L19.4423 19.9018C19.2557 19.7137 19.1548 19.47 19.1543 19.2068C19.1548 19.0366 19.1952 18.8797 19.2772 18.7306L19.6444 18.0703C19.6927 17.9833 19.717 17.8869 19.717 17.7902C19.717 17.6895 19.6904 17.5884 19.6369 17.4979C19.5335 17.3227 19.3449 17.2153 19.1413 17.2153H14.7853V14.8825C15.5725 14.8702 16.3161 14.56 16.8731 14.0019C17.4434 13.4331 17.7592 12.6702 17.7587 11.8643C17.7592 11.0574 17.4431 10.2944 16.8731 9.72615C16.3165 9.16803 15.5728 8.85836 14.7853 8.84612V5.04696C14.785 4.72913 14.5274 4.47153 14.2096 4.47153H2.16747C1.59003 4.47109 1.04195 4.69745 0.634658 5.10575C0.230187 5.51053 0.000502735 6.06601 8.31029e-07 6.63938V29.8327C-0.000501073 30.4097 0.22636 30.9575 0.634658 31.3653C1.03944 31.7695 1.59411 31.9995 2.16747 32H25.3633C25.9352 31.9995 26.4902 31.7695 26.8944 31.3653C27.3028 30.9575 27.5291 30.4102 27.5286 29.8327V17.7907C27.5287 17.4728 27.2711 17.2152 26.9532 17.2152ZM1.77988 6.63938C1.77988 6.5065 1.84174 6.41609 1.8923 6.36546C1.94469 6.31333 2.03484 6.25097 2.16747 6.25097H13.0053V10.8687C13.0053 10.9801 13.0643 11.0828 13.1601 11.1395C13.2092 11.1681 13.2641 11.1825 13.3193 11.1825C13.3719 11.1825 13.4243 11.1697 13.4719 11.1431L14.1324 10.7762C14.3186 10.6729 14.5215 10.6203 14.7351 10.6203C15.067 10.6203 15.3795 10.7496 15.6144 10.9842C15.8494 11.2198 15.9787 11.5325 15.9787 11.8642C15.9787 12.1958 15.8494 12.5081 15.6149 12.7432C15.3795 12.9782 15.067 13.1075 14.7351 13.1075C14.5213 13.1075 14.3186 13.0549 14.1326 12.9516L13.4716 12.5847C13.4244 12.5581 13.3717 12.5453 13.3193 12.5453C13.2641 12.5453 13.2092 12.5596 13.1602 12.5888C13.0644 12.645 13.0053 12.7477 13.0053 12.8592V17.4769H10.1461C10.1517 17.4058 10.1545 17.3348 10.1545 17.2648C10.1545 16.5264 9.86699 15.8329 9.34551 15.3121C8.82454 14.7904 8.13103 14.5032 7.39261 14.5032C6.65443 14.5032 5.96099 14.7904 5.4402 15.3116C4.91822 15.8324 4.63075 16.5264 4.63101 17.2643C4.63101 17.3348 4.63377 17.4054 4.63941 17.4769H1.77988V6.63938ZM13.0053 30.2206H2.16747C2.03484 30.2206 1.94469 30.1582 1.89356 30.1076C1.84174 30.0555 1.77988 29.965 1.77988 29.8327V18.9942H6.39733C6.5085 18.9942 6.61146 18.9354 6.66792 18.8398C6.72438 18.7437 6.72595 18.6252 6.67181 18.5281L6.30517 17.8673C6.20165 17.6808 6.14926 17.4779 6.14901 17.2648C6.14926 16.9331 6.27888 16.6204 6.51289 16.3853C6.74866 16.1508 7.06122 16.0209 7.39261 16.0209C7.72399 16.0209 8.03655 16.1508 8.27157 16.3848C8.50639 16.6204 8.63595 16.9331 8.6362 17.2642C8.63595 17.4784 8.58325 17.6813 8.4808 17.8668L8.11334 18.5275C8.05913 18.6252 8.06077 18.7437 8.11723 18.8393C8.17369 18.9353 8.27671 18.9941 8.38782 18.9941H13.0053V21.8543C12.9342 21.8488 12.8635 21.8462 12.7935 21.8462C12.0548 21.8462 11.3613 22.1334 10.8411 22.6546C10.3188 23.1759 10.0316 23.8694 10.0321 24.6073C10.0316 25.3452 10.3188 26.0392 10.8406 26.5599C11.3613 27.0817 12.0549 27.3689 12.7935 27.3689C12.864 27.3689 12.9348 27.3663 13.0053 27.3607V30.2206ZM25.7492 29.8327C25.7492 29.965 25.6869 30.055 25.6357 30.1066C25.5836 30.1583 25.4936 30.2206 25.3613 30.2206H14.5236V25.6029C14.5236 25.4915 14.4649 25.3888 14.3688 25.3326C14.3197 25.3034 14.2647 25.2892 14.2096 25.2892C14.1572 25.2892 14.1046 25.302 14.0573 25.3285L13.3958 25.6955C13.21 25.7987 13.0073 25.8513 12.7935 25.8513C12.4621 25.8513 12.1495 25.7216 11.9145 25.4874C11.6797 25.2524 11.5501 24.9396 11.5499 24.6079C11.5501 24.2758 11.6797 23.9635 11.9143 23.7285C12.1491 23.4939 12.4616 23.3641 12.7935 23.3636C13.0059 23.3636 13.2087 23.4162 13.3958 23.5194L14.0571 23.8869C14.1046 23.9135 14.157 23.9263 14.2097 23.9263C14.2648 23.9263 14.3198 23.9119 14.3688 23.8834C14.4646 23.8266 14.5237 23.7239 14.5237 23.6124V18.9942H17.3831C17.3775 19.0653 17.3747 19.1363 17.3747 19.2068C17.3745 19.9442 17.6617 20.6377 18.1832 21.159C18.7044 21.6812 19.3981 21.9685 20.1363 21.9685C20.8745 21.9685 21.568 21.6812 22.0893 21.1595C22.611 20.6388 22.8977 19.9453 22.8977 19.2069C22.8977 19.1363 22.8952 19.0658 22.8896 18.9943H25.7493V29.8327H25.7492Z" fill="#00A2FF"/>
</svg>
