<svg width="75" height="74" viewBox="0 0 75 74" fill="none" xmlns="http://www.w3.org/2000/svg">
<g clip-path="url(#clip0_128_65)">
<mask id="mask0_128_65" style="mask-type:luminance" maskUnits="userSpaceOnUse" x="1" y="0" width="74" height="74">
<path d="M74.4999 0H1.04333V73.4566H74.4999V0Z" fill="white"/>
</mask>
<g mask="url(#mask0_128_65)">
<path d="M74.4999 36.201C74.4999 45.9319 72.8691 53.8252 70.8568 53.8252C68.8444 53.8252 67.2143 45.934 67.2143 36.201C67.2143 26.4679 68.8451 18.5767 70.8568 18.5767C72.8684 18.5767 74.4999 26.4672 74.4999 36.201Z" fill="#636363"/>
<path d="M65.2041 36.201C65.2041 47.0644 60.5663 55.8744 54.8454 55.8744C49.1244 55.8744 44.4867 47.0644 44.4867 36.201C44.4867 25.3376 49.1237 16.5276 54.8447 16.5276C60.5656 16.5276 65.2041 25.3348 65.2041 36.201Z" fill="#636363"/>
<path d="M42.4773 36.201C42.4773 47.742 33.2019 57.0978 21.7607 57.0978C10.3195 57.0978 1.04333 47.7399 1.04333 36.201C1.04333 24.6621 10.3188 15.3035 21.7607 15.3035C33.2026 15.3035 42.4773 24.66 42.4773 36.201Z" fill="#636363"/>
</g>
</g>
<defs>
<clipPath id="clip0_128_65">
<rect width="74" height="74" fill="white" transform="translate(0.5)"/>
</clipPath>
</defs>
</svg>
