<svg width="74" height="74" viewBox="0 0 74 74" fill="none" xmlns="http://www.w3.org/2000/svg">
<g clip-path="url(#clip0_29_277)">
<path d="M73.9999 36.201C73.9999 45.9319 72.3691 53.8252 70.3568 53.8252C68.3444 53.8252 66.7143 45.934 66.7143 36.201C66.7143 26.4679 68.3451 18.5767 70.3568 18.5767C72.3684 18.5767 73.9999 26.4672 73.9999 36.201Z" fill="white"/>
<path d="M64.7041 36.201C64.7041 47.0644 60.0663 55.8744 54.3454 55.8744C48.6244 55.8744 43.9867 47.0644 43.9867 36.201C43.9867 25.3376 48.6237 16.5276 54.3447 16.5276C60.0656 16.5276 64.7033 25.3348 64.7033 36.201" fill="white"/>
<path d="M41.9773 36.201C41.9773 47.742 32.7019 57.0978 21.2607 57.0978C9.81947 57.0978 0.543335 47.7399 0.543335 36.201C0.543335 24.6621 9.81876 15.3035 21.2607 15.3035C32.7026 15.3035 41.9773 24.66 41.9773 36.201Z" fill="white"/>
</g>
<defs>
<clipPath id="clip0_29_277">
<rect width="73.4566" height="73.4566" fill="white" transform="translate(0.543335)"/>
</clipPath>
</defs>
</svg>
