<svg width="74" height="74" viewBox="0 0 74 74" fill="none" xmlns="http://www.w3.org/2000/svg">
<g clip-path="url(#clip0_29_276)">
<path d="M36.7457 0.00115967C16.459 0.00115967 0.017334 16.4428 0.017334 36.7295C0.017334 52.296 9.70156 65.5813 23.3599 70.9327C23.0443 68.0203 22.743 63.5727 23.489 60.402C24.1633 57.5326 27.7931 42.1526 27.7931 42.1526C27.7931 42.1526 26.6884 39.9576 26.6884 36.7008C26.6884 31.5933 29.6439 27.777 33.3311 27.777C36.4587 27.777 37.9795 30.1299 37.9795 32.9562C37.9795 36.1126 35.9709 40.8184 34.9379 45.1799C34.0771 48.8384 36.7743 51.8225 40.3755 51.8225C46.9033 51.8225 51.9248 44.936 51.9248 35.0078C51.9248 26.2131 45.6121 20.0583 36.5878 20.0583C26.1432 20.0583 20.0027 27.8917 20.0027 35.9978C20.0027 39.1541 21.2222 42.54 22.743 44.3764C23.0443 44.7351 23.0873 45.0651 23.0012 45.4238C22.7286 46.5859 22.0974 49.0823 21.9826 49.5844C21.8248 50.2587 21.4518 50.4022 20.7488 50.0722C16.1577 47.9345 13.2883 41.2344 13.2883 35.84C13.2883 24.2476 21.71 13.6165 37.5491 13.6165C50.2892 13.6165 60.1887 22.6981 60.1887 34.8357C60.1887 47.4897 52.2117 57.6761 41.1358 57.6761C37.42 57.6761 33.9193 55.7393 32.7141 53.4581C32.7141 53.4581 30.8777 60.4738 30.433 62.1954C29.6009 65.3804 27.3627 69.3833 25.8706 71.8223C29.3139 72.8839 32.958 73.4578 36.7457 73.4578C57.0323 73.4578 73.474 57.0161 73.474 36.7295C73.474 16.4428 57.0323 0.00115967 36.7457 0.00115967Z" fill="white"/>
</g>
<defs>
<clipPath id="clip0_29_276">
<rect width="73.4566" height="73.4566" fill="white" transform="translate(0.017334 0.00115967)"/>
</clipPath>
</defs>
</svg>
