<svg width="75" height="74" viewBox="0 0 75 74" fill="none" xmlns="http://www.w3.org/2000/svg">
<g clip-path="url(#clip0_128_76)">
<mask id="mask0_128_76" style="mask-type:luminance" maskUnits="userSpaceOnUse" x="0" y="0" width="74" height="74">
<path d="M73.9739 0.00115967H0.517334V73.4578H73.9739V0.00115967Z" fill="white"/>
</mask>
<g mask="url(#mask0_128_76)">
<path d="M37.2457 0.00115967C16.959 0.00115967 0.517334 16.4428 0.517334 36.7295C0.517334 52.296 10.2016 65.5813 23.8599 70.9327C23.5443 68.0203 23.243 63.5727 23.989 60.402C24.6633 57.5326 28.2931 42.1526 28.2931 42.1526C28.2931 42.1526 27.1884 39.9576 27.1884 36.7008C27.1884 31.5933 30.1439 27.777 33.8311 27.777C36.9587 27.777 38.4795 30.1299 38.4795 32.9562C38.4795 36.1126 36.4709 40.8184 35.4379 45.1799C34.5771 48.8384 37.2743 51.8225 40.8755 51.8225C47.4033 51.8225 52.4248 44.936 52.4248 35.0078C52.4248 26.2131 46.1121 20.0583 37.0878 20.0583C26.6432 20.0583 20.5027 27.8917 20.5027 35.9978C20.5027 39.1541 21.7222 42.54 23.243 44.3764C23.5443 44.7351 23.5873 45.0651 23.5012 45.4238C23.2286 46.5859 22.5974 49.0823 22.4826 49.5844C22.3248 50.2587 21.9518 50.4022 21.2488 50.0722C16.6577 47.9345 13.7883 41.2344 13.7883 35.84C13.7883 24.2476 22.21 13.6165 38.0491 13.6165C50.7892 13.6165 60.6887 22.6981 60.6887 34.8357C60.6887 47.4897 52.7117 57.6761 41.6358 57.6761C37.92 57.6761 34.4193 55.7393 33.2141 53.4581C33.2141 53.4581 31.3777 60.4738 30.933 62.1954C30.1009 65.3804 27.8627 69.3833 26.3706 71.8223C29.8139 72.8839 33.458 73.4578 37.2457 73.4578C57.5323 73.4578 73.974 57.0161 73.974 36.7295C73.974 16.4428 57.5323 0.00115967 37.2457 0.00115967Z" fill="#636363"/>
</g>
</g>
<defs>
<clipPath id="clip0_128_76">
<rect width="74" height="74" fill="white" transform="translate(0.5)"/>
</clipPath>
</defs>
</svg>
