<svg width="75" height="74" viewBox="0 0 75 74" fill="none" xmlns="http://www.w3.org/2000/svg">
<path d="M45.2089 17.3208C45.8459 20.0209 48.2706 22.0324 51.1658 22.0324C54.546 22.0324 57.2862 19.2921 57.2862 15.9119C57.2862 12.5318 54.546 9.7915 51.1658 9.7915C48.2103 9.7915 45.7455 11.8862 45.1716 14.6724C40.2219 15.2032 36.3568 19.4011 36.3568 24.4886C36.3568 24.5001 36.3568 24.5087 36.3568 24.5201C30.9738 24.7468 26.0585 26.2791 22.1562 28.698C20.7071 27.576 18.8879 26.9075 16.9138 26.9075C12.1764 26.9075 8.33716 30.7467 8.33716 35.4841C8.33716 38.9217 10.3572 41.8829 13.2754 43.2516C13.5594 53.2084 24.4086 61.2169 37.7542 61.2169C51.0998 61.2169 61.9633 53.1998 62.2331 43.2344C65.1283 41.8571 67.1311 38.9044 67.1311 35.487C67.1311 30.7496 63.2919 26.9103 58.5545 26.9103C56.589 26.9103 54.7784 27.5732 53.3322 28.6865C49.3954 26.2504 44.4256 24.7181 38.9881 24.5144C38.9881 24.5058 38.9881 24.5001 38.9881 24.4914C38.9881 20.8473 41.6968 17.823 45.2089 17.3266V17.3208ZM21.8118 40.9274C21.9553 37.8169 24.0213 35.4296 26.423 35.4296C28.8246 35.4296 30.6611 37.9518 30.5176 41.0622C30.3741 44.1727 28.5807 45.3032 26.1762 45.3032C23.7716 45.3032 21.6684 44.0378 21.8118 40.9274ZM49.0883 35.4296C51.4929 35.4296 53.5589 37.8169 53.6995 40.9274C53.8429 44.0378 51.7368 45.3032 49.3351 45.3032C46.9334 45.3032 45.1372 44.1755 44.9937 41.0622C44.8502 37.9518 46.6838 35.4296 49.0883 35.4296ZM46.2304 48.1238C46.6809 48.1697 46.9679 48.6375 46.7928 49.0564C45.3151 52.5886 41.8259 55.0706 37.7542 55.0706C33.6825 55.0706 30.1962 52.5886 28.7156 49.0564C28.5406 48.6375 28.8275 48.1697 29.278 48.1238C31.9179 47.857 34.7729 47.7106 37.7542 47.7106C40.7355 47.7106 43.5877 47.857 46.2304 48.1238Z" fill="#636363"/>
</svg>
