<svg width="74" height="74" viewBox="0 0 74 74" fill="none" xmlns="http://www.w3.org/2000/svg">
<path d="M44.7089 17.3208C45.3459 20.0209 47.7706 22.0324 50.6658 22.0324C54.046 22.0324 56.7862 19.2921 56.7862 15.9119C56.7862 12.5318 54.046 9.7915 50.6658 9.7915C47.7103 9.7915 45.2455 11.8862 44.6716 14.6724C39.7219 15.2032 35.8568 19.4011 35.8568 24.4886C35.8568 24.5001 35.8568 24.5087 35.8568 24.5201C30.4738 24.7468 25.5585 26.2791 21.6562 28.698C20.2071 27.576 18.3879 26.9075 16.4138 26.9075C11.6764 26.9075 7.83713 30.7467 7.83713 35.4841C7.83713 38.9217 9.85719 41.8829 12.7754 43.2516C13.0594 53.2084 23.9086 61.2169 37.2542 61.2169C50.5998 61.2169 61.4633 53.1998 61.7331 43.2344C64.6283 41.8571 66.6311 38.9044 66.6311 35.487C66.6311 30.7496 62.7919 26.9103 58.0545 26.9103C56.089 26.9103 54.2784 27.5732 52.8322 28.6865C48.8954 26.2504 43.9256 24.7181 38.4881 24.5144C38.4881 24.5058 38.4881 24.5001 38.4881 24.4914C38.4881 20.8473 41.1968 17.823 44.7089 17.3266V17.3208ZM21.3118 40.9274C21.4553 37.8169 23.5213 35.4296 25.923 35.4296C28.3246 35.4296 30.1611 37.9518 30.0176 41.0622C29.8741 44.1727 28.0807 45.3032 25.6762 45.3032C23.2716 45.3032 21.1684 44.0378 21.3118 40.9274ZM48.5883 35.4296C50.9929 35.4296 53.0589 37.8169 53.1995 40.9274C53.3429 44.0378 51.2368 45.3032 48.8351 45.3032C46.4334 45.3032 44.6372 44.1755 44.4937 41.0622C44.3502 37.9518 46.1838 35.4296 48.5883 35.4296ZM45.7304 48.1238C46.1809 48.1697 46.4679 48.6375 46.2928 49.0564C44.8151 52.5886 41.3259 55.0706 37.2542 55.0706C33.1825 55.0706 29.6962 52.5886 28.2156 49.0564C28.0406 48.6375 28.3275 48.1697 28.778 48.1238C31.4179 47.857 34.2729 47.7106 37.2542 47.7106C40.2355 47.7106 43.0877 47.857 45.7304 48.1238Z" fill="white"/>
</svg>
