<svg width="49" height="48" viewBox="0 0 49 48" fill="none" xmlns="http://www.w3.org/2000/svg">
<g clip-path="url(#clip0_128_84)">
<path fill-rule="evenodd" clip-rule="evenodd" d="M47.1613 36.5924C48.0542 32.4547 48.5031 28.2332 48.5 24.0001C48.5027 19.7681 48.0539 15.548 47.1613 11.4113C46.6301 8.9409 45.3971 6.67639 43.6104 4.88968C41.8235 3.10295 39.5591 1.86995 37.0887 1.33875C28.7911 -0.44625 20.2089 -0.44625 11.9113 1.33875C9.44249 1.87341 7.17986 3.10755 5.3937 4.8937C3.60755 6.67986 2.37341 8.94249 1.83875 11.4113C0.0537498 19.7089 0.0537498 28.2911 1.83875 36.5887C2.3656 39.0428 3.58504 41.2942 5.35251 43.0762L5.39376 43.1212C5.50996 43.2375 5.62991 43.3499 5.74986 43.4623C7.48767 45.0669 9.62696 46.1723 11.9412 46.6613C14.4937 47.2063 17.0793 47.5821 19.6812 47.7863C21.2937 47.9175 22.8987 47.9812 24.5301 47.9812C26.1613 47.9812 27.7812 47.9138 29.3787 47.7863C31.9808 47.5827 34.5664 47.2069 37.1187 46.6613C39.417 46.1639 41.5405 45.0607 43.2687 43.4662C43.3738 43.3725 43.475 43.275 43.5762 43.1737C43.5915 43.1566 43.6078 43.1402 43.6249 43.1249C45.4082 41.3334 46.6361 39.0651 47.1613 36.5924ZM39.4848 34.8696H32.1606V20.9026C32.1606 19.2769 31.8832 18.3933 30.6734 18.3933C29.3882 18.3933 28.1529 19.624 28.1529 22.0624V34.8696H20.828V20.9026C20.828 19.2769 20.5506 18.3933 19.3409 18.3933C18.0556 18.3933 16.8204 19.624 16.8204 22.0624V34.8701H9.49612V12.6262H16.6524C16.7641 13.7241 16.4935 16.0899 16.2121 17.189L17.0895 17.4914C17.0895 17.4914 18.6284 12.3132 23.1963 12.3132C28.0517 12.3132 27.5104 17.2223 27.5104 17.2223L28.2534 17.4914C28.2534 17.4914 29.83 12.3132 34.5412 12.3132C38.4044 12.3132 39.4848 16.3406 39.4848 19.2342V34.8696Z" fill="#636363"/>
</g>
<defs>
<clipPath id="clip0_128_84">
<rect width="48" height="48" fill="white" transform="translate(0.5)"/>
</clipPath>
</defs>
</svg>
