<svg width="48" height="48" viewBox="0 0 48 48" fill="none" xmlns="http://www.w3.org/2000/svg">
<path fill-rule="evenodd" clip-rule="evenodd" d="M46.6613 36.5924C47.5542 32.4547 48.0031 28.2332 48 24.0001C48.0027 19.7681 47.5539 15.548 46.6613 11.4113C46.1301 8.9409 44.8971 6.67639 43.1104 4.88968C41.3235 3.10295 39.0591 1.86995 36.5887 1.33875C28.2911 -0.446251 19.7089 -0.446251 11.4113 1.33875C8.94249 1.87341 6.67986 3.10755 4.8937 4.8937C3.10755 6.67986 1.87341 8.94249 1.33875 11.4113C-0.446251 19.7089 -0.446251 28.2911 1.33875 36.5887C1.8656 39.0428 3.08504 41.2942 4.85251 43.0762L4.89376 43.1212C5.00996 43.2375 5.12991 43.3499 5.24986 43.4623L5.25 43.4625C6.98781 45.0671 9.12696 46.1723 11.4412 46.6613C13.9937 47.2063 16.5793 47.5821 19.1812 47.7863C20.7937 47.9175 22.3987 47.9812 24.0301 47.9812C25.6613 47.9812 27.2812 47.9138 28.8787 47.7863C31.4808 47.5827 34.0664 47.2069 36.6187 46.6613C38.917 46.1639 41.0405 45.0607 42.7687 43.4662C42.8738 43.3725 42.975 43.275 43.0762 43.1737C43.0915 43.1566 43.1078 43.1402 43.1249 43.1249C44.9082 41.3334 46.1361 39.0651 46.6613 36.5924ZM38.9848 34.8696H31.6606V20.9026C31.6606 19.2769 31.3832 18.3933 30.1734 18.3933C28.8882 18.3933 27.6529 19.624 27.6529 22.0624V34.8696H20.328V20.9026C20.328 19.2769 20.0506 18.3933 18.8409 18.3933C17.5556 18.3933 16.3204 19.624 16.3204 22.0624V34.8701H8.99612V12.6262H16.1524C16.2641 13.7241 15.9935 16.0899 15.7121 17.189L16.5895 17.4914C16.5895 17.4914 18.1284 12.3132 22.6963 12.3132C27.5517 12.3132 27.0104 17.2223 27.0104 17.2223L27.7534 17.4914C27.7534 17.4914 29.33 12.3132 34.0412 12.3132C37.9044 12.3132 38.9848 16.3406 38.9848 19.2342V34.8696Z" fill="white"/>
</svg>
