<svg width="75" height="74" viewBox="0 0 75 74" fill="none" xmlns="http://www.w3.org/2000/svg">
<mask id="mask0_128_86" style="mask-type:luminance" maskUnits="userSpaceOnUse" x="0" y="0" width="74" height="74">
<path d="M73.9913 0H0.534668V73.4566H73.9913V0Z" fill="white"/>
</mask>
<g mask="url(#mask0_128_86)">
<path d="M52.7885 0H40.4088V50.0356C40.4088 55.9974 35.6475 60.8945 29.7223 60.8945C23.797 60.8945 19.0356 55.9974 19.0356 50.0356C19.0356 44.1805 23.6912 39.3897 29.4049 39.1769V26.6148C16.8136 26.8276 6.65607 37.1542 6.65607 50.0356C6.65607 63.0238 17.0253 73.4566 29.8281 73.4566C42.6308 73.4566 53 62.9173 53 50.0356V24.379C57.6556 27.7858 63.3692 29.8085 69.4003 29.915V17.3528C60.0892 17.0334 52.7885 9.36838 52.7885 0Z" fill="#636363"/>
</g>
</svg>
