<svg width="74" height="74" viewBox="0 0 74 74" fill="none" xmlns="http://www.w3.org/2000/svg">
<g clip-path="url(#clip0_29_279)">
<path d="M52.2885 0H39.9088V50.0356C39.9088 55.9974 35.1475 60.8945 29.2223 60.8945C23.297 60.8945 18.5356 55.9974 18.5356 50.0356C18.5356 44.1805 23.1912 39.3897 28.9049 39.1769V26.6148C16.3136 26.8276 6.15607 37.1542 6.15607 50.0356C6.15607 63.0238 16.5253 73.4566 29.3281 73.4566C42.1308 73.4566 52.5 62.9173 52.5 50.0356V24.379C57.1556 27.7858 62.8692 29.8085 68.9003 29.915V17.3528C59.5892 17.0334 52.2885 9.36838 52.2885 0Z" fill="white"/>
</g>
<defs>
<clipPath id="clip0_29_279">
<rect width="73.4566" height="73.4566" fill="white" transform="translate(0.034668)"/>
</clipPath>
</defs>
</svg>
