<svg width="74" height="74" viewBox="0 0 74 74" fill="none" xmlns="http://www.w3.org/2000/svg">
<g clip-path="url(#clip0_29_229)">
<path d="M72.725 22.0371C72.725 22.0371 72.0076 16.9726 69.7982 14.7489C67.0005 11.8221 63.8729 11.8077 62.4382 11.6356C52.1657 10.8895 36.7427 10.8895 36.7427 10.8895H36.714C36.714 10.8895 21.291 10.8895 11.0185 11.6356C9.5838 11.8077 6.45615 11.8221 3.65849 14.7489C1.44905 16.9726 0.746044 22.0371 0.746044 22.0371C0.746044 22.0371 0 27.9911 0 33.9308V39.4974C0 45.4371 0.731697 51.3911 0.731697 51.3911C0.731697 51.3911 1.44905 56.4556 3.64414 58.6794C6.4418 61.6062 10.1146 61.5057 11.7502 61.8214C17.6325 62.3809 36.7283 62.5531 36.7283 62.5531C36.7283 62.5531 52.1657 62.5244 62.4382 61.7927C63.8729 61.6205 67.0005 61.6062 69.7982 58.6794C72.0076 56.4556 72.725 51.3911 72.725 51.3911C72.725 51.3911 73.4566 45.4514 73.4566 39.4974V33.9308C73.4566 27.9911 72.725 22.0371 72.725 22.0371ZM29.1388 46.2549V25.6095L48.9807 35.9681L29.1388 46.2549Z" fill="white"/>
</g>
<defs>
<clipPath id="clip0_29_229">
<rect width="73.4566" height="73.4566" fill="white"/>
</clipPath>
</defs>
</svg>
