<svg width="75" height="74" viewBox="0 0 75 74" fill="none" xmlns="http://www.w3.org/2000/svg">
<g clip-path="url(#clip0_128_102)">
<mask id="mask0_128_102" style="mask-type:luminance" maskUnits="userSpaceOnUse" x="0" y="0" width="74" height="74">
<path d="M73.9566 0H0.5V73.4566H73.9566V0Z" fill="white"/>
</mask>
<g mask="url(#mask0_128_102)">
<path d="M73.225 22.0371C73.225 22.0371 72.5076 16.9726 70.2982 14.7489C67.5005 11.8221 64.3729 11.8077 62.9382 11.6356C52.6657 10.8895 37.2427 10.8895 37.2427 10.8895H37.214C37.214 10.8895 21.791 10.8895 11.5185 11.6356C10.0838 11.8077 6.95615 11.8221 4.15849 14.7489C1.94905 16.9726 1.24604 22.0371 1.24604 22.0371C1.24604 22.0371 0.5 27.9911 0.5 33.9308V39.4974C0.5 45.4371 1.2317 51.3911 1.2317 51.3911C1.2317 51.3911 1.94905 56.4556 4.14414 58.6794C6.9418 61.6062 10.6146 61.5057 12.2502 61.8214C18.1325 62.3809 37.2283 62.5531 37.2283 62.5531C37.2283 62.5531 52.6657 62.5244 62.9382 61.7927C64.3729 61.6205 67.5005 61.6062 70.2982 58.6794C72.5076 56.4556 73.225 51.3911 73.225 51.3911C73.225 51.3911 73.9566 45.4514 73.9566 39.4974V33.9308C73.9566 27.9911 73.225 22.0371 73.225 22.0371ZM29.6388 46.2549V25.6095L49.4807 35.9681L29.6388 46.2549Z" fill="#636363"/>
</g>
</g>
<defs>
<clipPath id="clip0_128_102">
<rect width="74" height="74" fill="white" transform="translate(0.5)"/>
</clipPath>
</defs>
</svg>
